<svg xmlns="http://www.w3.org/2000/svg" xmlns:xlink="http://www.w3.org/1999/xlink" width="19.889" height="30.544" viewBox="0 0 19.889 30.544"><defs><clipPath id="clip-path"><rect id="Rectangle_290" data-name="Rectangle 290" width="19.889" height="30.544" fill="#0d1c2c"></rect></clipPath></defs><g id="Group_129686" data-name="Group 129686" clip-path="url(#clip-path)"><path id="Path_1688" data-name="Path 1688" d="M15.537,14.679a1.807,1.807,0,0,1,1.582.565,1.5,1.5,0,0,1-.406,2.288.507.507,0,0,0-.29.487,7.258,7.258,0,0,1-4.545,6.61.454.454,0,0,0-.332.515c.036.689.051,1.379.052,2.069a.381.381,0,0,0,.3.418,2.447,2.447,0,0,1,1.66,2.265c.008.438-.178.645-.613.645q-3.84.005-7.68,0c-.431,0-.632-.208-.615-.649A2.389,2.389,0,0,1,6,27.759c.183-.1.382-.165.592-.254,0-.849.01-1.7-.013-2.547,0-.1-.171-.247-.294-.3a7.443,7.443,0,0,1-4.593-6.674.626.626,0,0,0-.224-.44,1.56,1.56,0,0,1-.707-1.623,1.516,1.516,0,0,1,1.284-1.2c.192-.031.388-.036.629-.057,0-.865.005-1.723-.009-2.581,0-.07-.125-.165-.211-.2A2.785,2.785,0,0,1,.71,9.126q0-2.827.006-5.654c0-.22-.005-.419-.24-.521-.011,0-.019-.016-.029-.023C-.089,2.56-.059,1.422.107.846A1.273,1.273,0,0,1,1.473,0Q9.117,0,16.76,0c1.033,0,1.492.482,1.514,1.521A1.609,1.609,0,0,1,17.6,3.129c-.1.063-.08.327-.123.533.423.022.79.021,1.152.063a1.333,1.333,0,0,1,1.262,1.339,1.37,1.37,0,0,1-1.382,1.269c-.316.013-.634,0-1,0,0,.185,0,.329,0,.472-.011.948.033,1.9-.05,2.842A2.527,2.527,0,0,1,15.872,11.8a.494.494,0,0,0-.341.55c.019.761.007,1.523.007,2.329m-1.106-.01c0-.406.005-.773,0-1.14-.022-1.3.052-2.618-.093-3.908A5.18,5.18,0,0,0,7.51,5.248a5.144,5.144,0,0,0-3.724,5.1c-.018,1.341,0,2.683,0,4.025a2.958,2.958,0,0,0,.03.295Zm-11.606,3.1a6.22,6.22,0,0,0,10.282,4.835,6.08,6.08,0,0,0,2.22-4.835ZM16.413,3.406,16.392,3.3H1.81c0,2.04-.024,4.059.022,6.076A2.829,2.829,0,0,0,2.3,10.464c.056.107.211.163.353.266,0-3.894,2.437-6.509,5.871-6.8A6.274,6.274,0,0,1,13.6,5.68a6.891,6.891,0,0,1,1.95,5.079,1.776,1.776,0,0,0,.865-1.54c.009-.517,0-1.034,0-1.551V6.648a1.728,1.728,0,0,1-2.17-1.32A1.6,1.6,0,0,1,14.5,4.1a1.773,1.773,0,0,1,1.915-.689M9.1,2.147H16.63a.7.7,0,0,0,.291-.01.5.5,0,0,0,.232-.242,1.82,1.82,0,0,0,.012-.366c.044-.339-.09-.445-.433-.444Q9.152,1.1,1.571,1.092c-.44,0-.42,0-.448.573-.017.354.059.494.456.491C4.087,2.138,6.6,2.147,9.1,2.147M9.1,16.664h6.569c.489,0,.729-.139.741-.424.012-.309-.218-.45-.742-.45H2.562c-.1,0-.2,0-.3,0-.272.013-.457.148-.455.427s.19.414.456.437c.11.01.221.005.332.005H9.1M7.717,27.442h2.739V25.156H7.717Zm4.64,1.995a1.4,1.4,0,0,0-1.3-.848c-.454-.02-.91-.005-1.366-.005-.836,0-1.673-.009-2.51,0a1.214,1.214,0,0,0-1.263.85ZM16.473,5.051a.583.583,0,0,0-.555-.58.57.57,0,0,0-.6.523.564.564,0,0,0,.562.6.587.587,0,0,0,.594-.541m1.107.176c.333,0,.625.016.915-.009.1-.008.188-.12.281-.185-.1-.076-.187-.208-.29-.219-.3-.03-.6-.011-.906-.011Z" transform="translate(0 0)" fill="#0d1c2c"></path><path id="Path_1689" data-name="Path 1689" d="M30.9,132.379a11.222,11.222,0,0,1-1.481-.7,4.116,4.116,0,0,1-1.96-2.907c-.056-.39.111-.644.428-.7s.548.133.641.515A3.278,3.278,0,0,0,31.04,131.2a.555.555,0,0,1,.475.642.683.683,0,0,1-.618.54" transform="translate(-23.381 -109.094)" fill="#0d1c2c"></path></g></svg>